# xmcd
#
# Track frame offsets:
#	150
#	8933
#	18719
#	35155
#	46864
#	58973
#	71542
#	84417
#	95570
#	106144
#	118970
#	132940
#	145479
#	162043
#	173318
#	183476
#	196507
#	208603
#	224715
#	236885
#	249668
#	262224
#	269566
#	279716
#	291382
#
# Disc length: 4066 seconds
#
# Revision: 0
# Processed by: cddbd v1.5.2PL0 Copyright (c) Steve Scherf et al.
# Submitted via: EasyCDDAExtractor 15.2.1.1
#
DISCID=8c0fe019
DTITLE=Roy Drusky - Smooth Country
DYEAR=2017
DGENRE=Country
TTITLE0=Alone with You
TTITLE1=White Lightnin' Express
TTITLE2=Those were the days
TTITLE3=Yes Mr.Peters
TTITLE4=Sunshine and rainbows
TTITLE5=I'll Make Amends
TTITLE6=Woman Woman
TTITLE7=When I loved her
TTITLE8=Such A fool
TTITLE9=Red red wine
TTITLE10=Come Sundown
TTITLE11=Dreams of the everyday Housewife
TTITLE12=For the good times
TTITLE13=Silver wings
TTITLE14=Yesterday's gone
TTITLE15=You're the only good thing
TTITLE16=Weakness in a man
TTITLE17=The Night 's not over yet
TTITLE18=Rainbows and roses
TTITLE19=Ribbon of Darkness
TTITLE20=New Lips
TTITLE21=Blue Canadian Rockies
TTITLE22=Help Me make it through the Night
TTITLE23=I love the way that You've been Lovin'Me
TTITLE24=Little green Apples
EXTD=
EXTT0=
EXTT1=
EXTT2=
EXTT3=
EXTT4=
EXTT5=
EXTT6=
EXTT7=
EXTT8=
EXTT9=
EXTT10=
EXTT11=
EXTT12=
EXTT13=
EXTT14=
EXTT15=
EXTT16=
EXTT17=
EXTT18=
EXTT19=
EXTT20=
EXTT21=
EXTT22=
EXTT23=
EXTT24=
PLAYORDER=
